<svg width="47" height="38" viewBox="0 0 47 38" fill="none" xmlns="http://www.w3.org/2000/svg">
<path d="M41.2341 37.7825C43.5564 35.0166 45.1946 31.7426 46.0163 28.2258C46.8379 24.7089 46.8197 21.048 45.9633 17.5395C45.1069 14.0309 43.4363 10.7734 41.0868 8.03054C38.7373 5.28773 35.7748 3.13676 32.4394 1.7518C29.1039 0.366836 25.4892 -0.213191 21.8879 0.0586811C18.2866 0.330553 14.7999 1.44668 11.7102 3.3167C8.6205 5.18672 6.01458 7.75806 4.10345 10.8225C2.19233 13.887 1.02972 17.3584 0.709762 20.9558L10.5678 21.8326C10.7501 19.7832 11.4124 17.8055 12.5012 16.0597C13.5899 14.3139 15.0745 12.849 16.8347 11.7836C18.5949 10.7183 20.5813 10.0824 22.6329 9.92752C24.6846 9.77264 26.7439 10.1031 28.6441 10.8921C30.5443 11.6811 32.232 12.9065 33.5705 14.4691C34.909 16.0317 35.8608 17.8875 36.3487 19.8863C36.8366 21.8851 36.8469 23.9707 36.3788 25.9743C35.9108 27.9778 34.9774 29.843 33.6545 31.4188L41.2341 37.7825Z" fill="#EBEBFF"/>
</svg>
